<svg id="heart-checked" data-name="Layer 1" xmlns="http://www.w3.org/2000/svg" viewBox="0 0 79.14 79.96"><defs><style>.cls-1{fill:#f66;}.cls-1,.cls-2{stroke:#f66;}.cls-1,.cls-2,.cls-3,.cls-4{stroke-miterlimit:10;}.cls-2{fill:#f99;}.cls-3{fill:#f33;stroke:#f33;}.cls-4{fill:#fcc;stroke:#fcc;}</style></defs><title>Heart_Filled</title><path class="cls-1" d="M82.5,18.93c-2.17-2.71-8.77-5.74-12-7a20.17,20.17,0,0,0-8-1c-3.31.56-12,2.64-12,6C48,14.68,38.7,10.6,38.7,10.6s-6.09.35-8,1c-2.89,1-9.89,4.9-12,7-4.09,4.07-8.07,16.33-7,22,2.76,14.57,36.06,45.31,38.8,47.82v.51s36.12-32.81,39-48C90.57,35.25,86.11,23.43,82.5,18.93Z" transform="translate(-11.02 -10.09)"/><path class="cls-2" d="M77.94,22.65c-1.89-2.35-7.61-5-10.41-6.07a17.45,17.45,0,0,0-6.94-.87c-2.87.49-10.4,2.29-10.4,5.2C48,19,40,15.43,40,15.43a44.86,44.86,0,0,0-6.94.86c-2.5.85-9.16,4.74-10.4,6.07-3.42,3.66-7,14.16-6.07,19.08,2.39,12.63,31.27,39.29,33.65,41.47v.44S81.51,54.9,84,41.72C84.94,36.81,81.07,26.55,77.94,22.65Z" transform="translate(-11.02 -10.09)"/><path class="cls-1" d="M57.61,15.63c-2.56.91-5,2.23-5,3.92-2.07-2-9.88-5.55-9.88-5.55a41.37,41.37,0,0,0-6.71.88c-2.42.85-8.85,4.79-10,6.14-3.3,3.7-6.77,14.33-5.87,19.3C22.46,53.1,48.2,80.3,50.5,82.5h0S82.92,53.94,85.33,40.61c.9-5-2.84-15.35-5.87-19.31-1.82-2.37-7.34-5-10-6.14a16.3,16.3,0,0,0-6.7-.87,33.72,33.72,0,0,0-5.1,1.34" transform="translate(-11.02 -10.09)"/><path class="cls-3" d="M55,16s3.67-3.19,7.33-2.55l3.67.64A22.75,22.75,0,0,0,55,16Z" transform="translate(-11.02 -10.09)"/><polygon class="cls-4" points="6.29 30.22 6.92 30.84 5.98 31.16 6.92 31.47 6.92 32.41 7.54 31.47 8.48 31.47 7.85 30.84 7.85 29.91 7.54 30.22 6.29 30.22"/></svg>
