<svg id="Heart_unchecked" data-name="Layer 1" xmlns="http://www.w3.org/2000/svg" viewBox="0 0 79.13 79.96"><defs><style>.cls-1{fill:#333;stroke:#333;stroke-miterlimit:10;}</style></defs><title>Heart_unchecked</title><path class="cls-1" d="M82.5,17.5c-2.17-2.71-8.77-5.73-12-7a20.17,20.17,0,0,0-8-1c-3.31.57-12,2.65-12,6C48,13.25,38.7,9.17,38.7,9.17s-6.09.36-8,1c-2.89,1-10.57,5.47-12,7-3.94,4.22-8.07,16.33-7,22C14.46,53.74,47.76,84.48,50.5,87v.51s36.12-32.81,39-48C90.57,33.83,86.11,22,82.5,17.5Zm3.17,23.14C83.08,54.34,50.5,83.93,50.5,83.93v-.46c-2.47-2.27-32.5-30-35-43.12-1-5.12,2.76-16,6.31-19.84,1.3-1.39,8.22-5.44,10.82-6.32a47.22,47.22,0,0,1,7.22-.9S48.27,17,50.5,19c0-3,7.84-4.9,10.82-5.42a18.31,18.31,0,0,1,7.22.91c2.91,1.14,8.86,3.86,10.82,6.31C82.61,24.86,86.64,35.52,85.67,40.64Z" transform="translate(-11.03 -8.67)"/></svg>
