<svg id="Layer_1" data-name="Layer 1" xmlns="http://www.w3.org/2000/svg" viewBox="0 0 86.14 91.41"><defs><style>.cls-1{fill:none;stroke:#000;stroke-miterlimit:10;stroke-width:8px;}</style></defs><title>Heart_unchecked</title><path class="cls-1" d="M82,17.05c-2.17-2.71-8.77-5.73-12-7a20.17,20.17,0,0,0-8-1c-3.31.57-12,2.64-12,6C47.52,12.8,38.2,8.72,38.2,8.72s-6.09.36-8,1c-2.89,1-9.89,4.9-12,7-4.09,4.07-8.07,16.33-7,22C14,53.29,47.26,84,50,86.54v.51s36.12-32.81,39-48C90.07,33.38,85.61,21.55,82,17.05Z" transform="translate(-7.02 -4.67)"/></svg>